HIERARCHY
ROOT Hips
{
	OFFSET 0.00000 0.00000 0.00000
	CHANNELS 6 Xposition Yposition Zposition Zrotation Yrotation Xrotation 
	JOINT LHipJoint
	{
		OFFSET 0 0 0
		CHANNELS 3 Zrotation Yrotation Xrotation
		JOINT LeftUpLeg
		{
			OFFSET 1.66553 -1.82942 0.76350
			CHANNELS 3 Zrotation Yrotation Xrotation
			JOINT LeftLeg
			{
				OFFSET 2.41740 -6.64177 0.00000
				CHANNELS 3 Zrotation Yrotation Xrotation
				JOINT LeftFoot
				{
					OFFSET 2.71614 -7.46254 0.00000
					CHANNELS 3 Zrotation Yrotation Xrotation
					JOINT LeftToeBase
					{
						OFFSET 0.08005 -0.21993 1.82495
						CHANNELS 3 Zrotation Yrotation Xrotation
						End Site
						{
							OFFSET 0.00000 -0.00000 0.93441
						}
					}
				}
			}
		}
	}
	JOINT RHipJoint
	{
		OFFSET 0 0 0
		CHANNELS 3 Zrotation Yrotation Xrotation
		JOINT RightUpLeg
		{
			OFFSET -1.63725 -1.82942 0.76350
			CHANNELS 3 Zrotation Yrotation Xrotation
			JOINT RightLeg
			{
				OFFSET -2.40538 -6.60872 0.00000
				CHANNELS 3 Zrotation Yrotation Xrotation
				JOINT RightFoot
				{
					OFFSET -2.73312 -7.50919 0.00000
					CHANNELS 3 Zrotation Yrotation Xrotation
					JOINT RightToeBase
					{
						OFFSET -0.15567 -0.42769 1.93504
						CHANNELS 3 Zrotation Yrotation Xrotation
						End Site
						{
							OFFSET -0.00000 -0.00000 1.00100
						}
					}
				}
			}
		}
	}
	JOINT LowerBack
	{
		OFFSET 0 0 0
		CHANNELS 3 Zrotation Yrotation Xrotation
		JOINT Spine
		{
			OFFSET 0.00326 2.30118 -0.13017
			CHANNELS 3 Zrotation Yrotation Xrotation
			JOINT Spine1
			{
				OFFSET 0.02887 2.30677 0.00834
				CHANNELS 3 Zrotation Yrotation Xrotation
				JOINT Neck
				{
					OFFSET 0 0 0
					CHANNELS 3 Zrotation Yrotation Xrotation
					JOINT Neck1
					{
						OFFSET 0.12946 1.68326 0.00713
						CHANNELS 3 Zrotation Yrotation Xrotation
						JOINT Head
						{
							OFFSET -0.24364 1.67243 -0.16079
							CHANNELS 3 Zrotation Yrotation Xrotation
							End Site
							{
								OFFSET -0.09229 1.70819 -0.06383
							}
						}
					}
				}
				JOINT LeftShoulder
				{
					OFFSET 0 0 0
					CHANNELS 3 Zrotation Yrotation Xrotation
					JOINT LeftArm
					{
						OFFSET 3.28104 0.69567 -0.00556
						CHANNELS 3 Zrotation Yrotation Xrotation
						JOINT LeftForeArm
						{
							OFFSET 5.70706 -0.00000 -0.00000
							CHANNELS 3 Zrotation Yrotation Xrotation
							JOINT LeftHand
							{
								OFFSET 3.33243 -0.00000 0.00000
								CHANNELS 3 Zrotation Yrotation Xrotation
								JOINT LeftFingerBase
								{
									OFFSET 0 0 0
									CHANNELS 3 Zrotation Yrotation Xrotation
									JOINT LeftHandIndex1
									{
										OFFSET 0.79269 -0.00000 0.00000
										CHANNELS 3 Zrotation Yrotation Xrotation
										End Site
										{
											OFFSET 0.63909 -0.00000 0.00000
										}
									}
								}
								JOINT LThumb
								{
									OFFSET 0 0 0
									CHANNELS 3 Zrotation Yrotation Xrotation
									End Site
									{
										OFFSET 0.64884 -0.00000 0.64884
									}
								}
							}
						}
					}
				}
				JOINT RightShoulder
				{
					OFFSET 0 0 0
					CHANNELS 3 Zrotation Yrotation Xrotation
					JOINT RightArm
					{
						OFFSET -3.40955 0.64424 0.14010
						CHANNELS 3 Zrotation Yrotation Xrotation
						JOINT RightForeArm
						{
							OFFSET -5.88176 -0.00000 -0.00000
							CHANNELS 3 Zrotation Yrotation Xrotation
							JOINT RightHand
							{
								OFFSET -3.28156 -0.00000 0.00000
								CHANNELS 3 Zrotation Yrotation Xrotation
								JOINT RightFingerBase
								{
									OFFSET 0 0 0
									CHANNELS 3 Zrotation Yrotation Xrotation
									JOINT RightHandIndex1
									{
										OFFSET -0.86313 -0.00000 0.00000
										CHANNELS 3 Zrotation Yrotation Xrotation
										End Site
										{
											OFFSET -0.69587 -0.00000 0.00000
										}
									}
								}
								JOINT RThumb
								{
									OFFSET 0 0 0
									CHANNELS 3 Zrotation Yrotation Xrotation
									End Site
									{
										OFFSET -0.70650 -0.00000 0.70650
									}
								}
							}
						}
					}
				}
			}
		}
	}
}
MOTION
Frames: 15
Frame Time: .0083333
2.9604 17.2554 -27.07 0 0 0 0 0 0 -21 0 0 0 0 0 0 0 0 0 0 0 0 0 0 21 0 0 0 0 0 0 0 0 0 0 0 0 0 0 0 0 0 0 0 0 0 0 -16 0 0 21 0 0 11 0 0 0 -8 0 0 0 0 0 0 0 0 0 0 0 0 0 0 0 0 0 0 0 0 8 0 0 0 0 0 0 0 0 0 0 0 0 0 0 0 0 0
2.9604 17.2554 -27.0700 -5.9557 -3.1364 2.5113 0.0000 0.0000 0.0000 -12.8663 -7.8751 -18.9529 5.1597 13.5614 41.5080 1.6029 -4.5161 -22.9028 1.6465 -8.0872 -22.9793 0.0000 0.0000 0.0000 29.8512 -0.3229 -4.6674 -1.9965 -8.8587 25.3544 -1.1867 14.8243 -20.6680 -3.5275 -11.5036 33.9976 4.9219 1.0708 3.8505 1.9300 1.8117 -2.6255 -0.8993 0.7689 -4.7978 15.7740 4.6675 6.1469 -20.6113 5.4706 -14.4240 -9.5694 3.2014 -4.0910 -0.0000 0.0000 0.0000 6.2957 -13.7877 -20.1516 57.1345 -55.4967 -31.9680 -0.0000 -0.0000 3.2077 50.3094 8.0298 9.5540 -7.1250 0.0000 -0.0000 20.9251 41.4628 -1.9200 -0.0000 0.0000 0.0000 77.3633 26.6940 49.5594 -89.3692 59.9985 -59.4537 0.0000 -0.0000 -22.0499 -17.3059 10.4161 -3.2242 7.1250 -0.0000 -0.0000 6.8900 -19.1237 4.2835
2.9741 17.2523 -27.0365 -5.2875 -2.4075 2.2719 0.0000 0.0000 0.0000 -13.7377 -8.1617 -18.3445 5.0621 13.4534 41.0901 1.6253 -4.8549 -23.0243 1.6809 -8.1671 -23.2228 0.0000 0.0000 0.0000 29.2864 0.1335 -4.7381 -2.1447 -9.1612 26.3010 -1.4471 13.4377 -22.1406 -3.0890 -10.8377 31.7346 4.4894 0.7836 3.8502 1.7477 1.3928 -2.5859 -0.8149 0.5733 -4.7805 15.0101 4.8144 7.0120 -20.0014 5.6684 -15.2734 -9.3045 3.3428 -4.5109 0.0000 0.0000 0.0000 5.8931 -13.7139 -19.8224 57.6490 -55.6502 -32.3924 -0.0000 -0.0000 2.2792 50.2507 8.0781 9.5904 -7.1250 0.0000 -0.0000 20.8867 41.5230 -1.8834 0.0000 0.0000 0.0000 77.3277 26.5692 49.9666 -89.5612 59.9993 -59.6200 0.0000 -0.0000 -22.2824 -17.3586 10.2020 -3.1690 7.1250 -0.0000 -0.0000 6.8535 -19.3421 4.2269
2.9863 17.2438 -27.0006 -4.8466 -1.7022 2.1589 0.0000 0.0000 0.0000 -14.3017 -8.4603 -17.9224 4.9679 13.3476 40.6840 1.6098 -5.3611 -22.8521 1.5485 -7.8545 -22.2731 0.0000 0.0000 0.0000 28.9877 0.8098 -4.9777 -2.3455 -9.5515 27.5361 -1.6591 12.2266 -23.3646 -2.8525 -10.4523 30.4542 4.3323 0.5458 3.6922 1.5490 1.0458 -2.5385 -0.9043 0.4060 -4.6550 14.9979 4.7651 6.8033 -20.0637 5.5945 -14.9946 -9.2990 3.3006 -4.4031 -0.0000 0.0000 0.0000 5.6874 -13.7333 -19.5910 58.1480 -55.7959 -32.8047 -0.0000 -0.0000 1.0127 49.8838 8.1947 9.6019 -7.1250 0.0000 -0.0000 20.5840 41.6328 -1.7946 -0.0000 0.0000 0.0000 77.4151 26.3275 50.2600 -89.8126 59.9999 -59.8377 0.0000 -0.0000 -22.1228 -17.2312 9.7565 -3.0086 7.1250 -0.0000 -0.0000 6.9465 -19.8118 4.2117
2.9983 17.2361 -26.9936 -4.6283 -1.2919 2.2426 0.0000 0.0000 0.0000 -14.5276 -8.5439 -17.9294 4.8598 13.2241 40.2133 1.5555 -5.6181 -22.4236 1.5233 -7.7933 -22.0880 0.0000 0.0000 0.0000 28.9307 1.9601 -5.4129 -2.5722 -9.9679 28.8729 -1.7855 11.3646 -24.0986 -2.8611 -10.4667 30.5016 4.3981 0.4976 3.7288 1.3374 0.9820 -2.6334 -1.1560 0.3650 -4.7735 15.8431 4.4700 5.8836 -20.9196 5.1997 -13.8432 -9.6498 3.0668 -3.9128 -0.0000 0.0000 0.0000 5.5743 -14.1403 -19.4792 58.6817 -55.9483 -33.2465 -0.0000 0.0000 -0.7477 49.0081 8.1306 9.2434 -7.1250 0.0000 -0.0000 19.7511 41.4090 -1.8295 -0.0000 0.0000 0.0000 77.5623 25.9143 50.1271 -90.0544 60.0000 -60.0471 0.0000 -0.0000 -21.6705 -16.9438 9.3677 -2.8389 7.1250 -0.0000 -0.0000 7.1555 -20.2315 4.2726
3.0126 17.2356 -26.9701 -3.2685 -0.7168 2.1087 0.0000 0.0000 0.0000 -16.1505 -8.6203 -17.5051 4.7371 13.0815 39.6744 1.5179 -5.7678 -22.1284 1.6212 -8.0279 -22.7988 0.0000 0.0000 0.0000 27.4941 2.4276 -5.8350 -2.8350 -10.4230 30.3577 -1.9047 10.8530 -24.8318 -2.7753 -10.3222 30.0264 3.3626 0.4552 3.6617 0.7890 0.8342 -2.5085 -1.1323 0.3202 -4.6138 16.1226 4.3208 5.5817 -21.1264 4.9835 -13.6530 -9.7521 2.9433 -3.8291 -0.0000 -0.0000 0.0000 5.5152 -14.6985 -19.5514 59.4872 -56.1717 -33.9148 -0.0000 0.0000 -2.9584 48.2684 8.3351 9.2311 -7.1250 0.0000 -0.0000 19.1265 41.5865 -1.6791 -0.0000 -0.0000 0.0000 77.6212 25.7325 49.8560 -90.3822 59.9994 -60.3310 0.0000 -0.0000 -22.1903 -17.0848 9.2079 -2.8156 7.1250 -0.0000 -0.0000 7.0566 -20.3887 4.1875
3.0277 17.2306 -26.9478 -1.9910 -0.1409 2.1168 0.0000 0.0000 0.0000 -17.6507 -8.6644 -17.2477 4.6243 12.9478 39.1735 1.4633 -6.1509 -21.6860 1.6451 -8.0840 -22.9696 0.0000 0.0000 0.0000 26.1089 2.7942 -6.5385 -3.1331 -10.9075 31.9685 -1.9928 10.3839 -25.3689 -2.6949 -10.1839 29.5745 2.4736 0.3632 3.5528 0.2416 0.6323 -2.4171 -1.1839 0.2417 -4.4658 15.6268 4.4093 5.9091 -20.4403 5.1063 -14.2104 -9.4626 3.0074 -4.0703 0.0000 -0.0000 0.0000 5.4294 -15.1210 -19.5399 60.4565 -56.4303 -34.7212 -0.0000 0.0000 -5.0569 48.3180 9.5047 10.5063 -7.1250 0.0000 -0.0000 19.5105 43.2206 -0.8932 0.0000 -0.0000 0.0000 77.6912 25.5819 49.8116 -90.7218 59.9980 -60.6251 0.0000 -0.0000 -22.8931 -16.9923 9.1532 -2.7830 7.1250 -0.0000 -0.0000 7.1235 -20.4506 4.2178
3.0467 17.2230 -26.9270 -1.3117 0.3077 2.3276 0.0000 0.0000 0.0000 -18.4613 -8.5821 -17.2544 4.5070 12.8061 38.6469 1.4069 -6.3246 -21.2419 1.7528 -8.3310 -23.7241 0.0000 0.0000 0.0000 25.3087 3.2454 -7.4858 -3.4579 -11.4018 33.6472 -2.0224 10.2225 -25.5504 -2.8159 -10.3909 30.2522 2.3377 0.2853 3.3883 -0.2407 0.4987 -2.6029 -1.5962 0.1686 -4.5678 15.1202 4.4133 7.0293 -19.5685 5.2084 -15.0175 -9.1581 3.0817 -4.5422 0.0000 0.0000 0.0000 5.4138 -15.6997 -19.2599 61.1544 -56.6098 -35.3033 -0.0000 0.0000 -7.2352 48.2847 10.8212 11.8930 -7.1250 0.0000 -0.0000 19.8665 45.0305 0.0156 0.0000 0.0000 0.0000 77.9436 25.0933 49.9014 -91.0213 59.9961 -60.8845 0.0000 -0.0000 -23.1857 -16.6640 8.8924 -2.6492 7.1250 -0.0000 -0.0000 7.3628 -20.7382 4.3138
3.0650 17.2115 -26.8971 -0.5207 0.7705 2.3048 0.0000 0.0000 0.0000 -19.4527 -8.3923 -16.9476 4.3971 12.6709 38.1486 1.3846 -6.6727 -21.0540 1.7915 -8.4176 -23.9899 0.0000 0.0000 0.0000 24.3511 3.4175 -8.1724 -3.8035 -11.8943 35.3590 -2.0669 9.9767 -25.8231 -2.8117 -10.3838 30.2289 2.0332 0.1550 3.3862 -0.6655 0.2896 -2.5351 -1.8493 0.0685 -4.5043 14.8328 4.4859 6.7077 -19.2333 5.2865 -14.9002 -8.9712 3.0998 -4.4596 -0.0000 -0.0000 0.0000 5.3963 -16.1900 -19.4728 61.7601 -56.7610 -35.8095 -0.0000 0.0000 -9.5534 47.7044 11.7620 12.6291 -7.1250 0.0000 -0.0000 19.5590 46.2002 0.6022 -0.0000 -0.0000 0.0000 78.0648 25.1657 50.0648 -91.2714 59.9939 -61.1011 0.0000 -0.0000 -23.6383 -16.4382 8.1459 -2.3939 7.1250 -0.0000 -0.0000 7.5407 -21.5202 4.2853
3.0742 17.2064 -26.8653 0.3610 1.4308 2.2325 0.0000 0.0000 0.0000 -20.4690 -8.2071 -16.5711 4.2899 12.5366 37.6575 1.3470 -7.7589 -20.7527 1.6420 -8.0769 -22.9478 0.0000 0.0000 0.0000 23.3748 3.4547 -8.8170 -4.1748 -12.3895 37.1241 -2.1318 9.4864 -26.2218 -2.6791 -10.1566 29.4852 1.5209 -0.0070 3.3066 -1.0546 0.0283 -2.4199 -1.9446 -0.0492 -4.3509 14.9355 4.3887 5.8926 -19.4197 5.1207 -14.1422 -8.9804 2.9866 -4.1113 0.0000 -0.0000 0.0000 5.3016 -16.5443 -19.7824 62.7267 -56.9938 -36.6190 -0.0000 0.0000 -11.9471 46.9641 12.5104 13.0617 -7.1250 0.0000 -0.0000 19.0097 47.0570 0.9998 0.0000 -0.0000 0.0000 78.0610 25.0990 50.0639 -91.6593 59.9896 -61.4369 0.0000 -0.0000 -24.2244 -16.1814 8.0452 -2.3256 7.1250 -0.0000 -0.0000 7.7289 -21.6361 4.3737
3.0831 17.2071 -26.8419 1.1305 2.1362 2.3080 0.0000 0.0000 0.0000 -21.2964 -8.0081 -16.3909 4.1671 12.3795 37.0880 1.2499 -8.9727 -20.0514 1.4963 -7.7270 -21.8880 0.0000 0.0000 0.0000 22.5350 3.6206 -9.6818 -4.5739 -12.8873 38.9479 -2.1817 8.9702 -26.5334 -2.5742 -9.9715 28.8846 1.1714 -0.1764 3.1185 -1.4614 -0.2331 -2.3258 -2.1504 -0.1728 -4.1586 15.0424 4.2722 5.4531 -19.5917 4.9254 -13.8744 -9.0277 2.8749 -3.9806 -0.0000 0.0000 0.0000 5.2609 -16.8462 -20.1541 63.9126 -57.2655 -37.6150 -0.0000 0.0000 -14.6235 46.6115 13.3087 13.6865 -7.1250 0.0000 -0.0000 18.8543 48.0451 1.4653 -0.0000 0.0000 0.0000 78.0871 24.9719 49.8312 -91.8197 59.9875 -61.5759 0.0000 -0.0000 -24.7592 -15.2492 9.3373 -2.5326 7.1250 -0.0000 -0.0000 8.3669 -20.3561 4.9867
3.0982 17.1998 -26.8304 1.7898 2.7972 2.3284 0.0000 0.0000 0.0000 -22.0496 -7.8197 -16.1197 4.0255 12.1942 36.4226 1.1505 -9.7229 -19.3371 1.4497 -7.6110 -21.5386 0.0000 0.0000 0.0000 21.7426 3.7156 -10.6412 -4.9958 -13.3791 40.8045 -2.1948 8.4944 -26.6235 -2.3483 -9.5568 27.5530 1.1303 -0.2831 3.2838 -1.9755 -0.3972 -2.3396 -2.6490 -0.2627 -4.2792 15.2512 4.0500 5.4330 -19.7523 4.5996 -14.0426 -9.1271 2.7134 -4.0743 -0.0000 -0.0000 0.0000 5.3153 -17.5379 -20.4326 65.0192 -57.5055 -38.5471 -0.0000 0.0000 -17.1415 46.7277 14.2471 14.6500 -7.1250 0.0000 -0.0000 19.2257 49.3096 2.1136 -0.0000 -0.0000 0.0000 78.2141 24.8864 49.6382 -91.9752 59.9853 -61.7105 0.0000 -0.0000 -24.8236 -15.0558 9.6249 -2.5751 7.1250 -0.0000 -0.0000 8.4979 -20.0723 5.1212
3.1167 17.1992 -26.8200 2.5206 3.6218 2.3821 0.0000 0.0000 0.0000 -22.9238 -7.8218 -15.7229 3.8727 11.9891 35.6934 1.0940 -10.1954 -18.9475 1.5238 -7.7945 -22.0917 0.0000 0.0000 0.0000 20.7869 3.4823 -11.7514 -5.4295 -13.8517 42.6467 -2.1680 8.1248 -26.4657 -2.0197 -8.9069 25.5046 1.0574 -0.4634 3.5428 -2.4372 -0.6617 -2.4075 -3.0686 -0.4029 -4.5177 14.9482 3.8939 5.8127 -19.5411 4.3614 -14.5793 -9.0386 2.6187 -4.3605 -0.0000 0.0000 0.0000 5.1870 -18.2614 -20.6429 65.9995 -57.7075 -39.3749 -0.0000 0.0000 -19.1903 46.9818 15.2446 15.7373 -7.1250 0.0000 -0.0000 19.7775 50.6786 2.8642 -0.0000 0.0000 0.0000 78.1876 24.8636 49.6260 -91.9225 59.9860 -61.6648 0.0000 -0.0000 -24.7501 -15.0868 9.6986 -2.6002 7.1250 -0.0000 -0.0000 8.4741 -19.9952 5.1214
3.1317 17.2079 -26.7993 3.5201 4.4565 2.4982 0.0000 0.0000 0.0000 -24.0826 -7.7448 -15.3239 3.7163 11.7730 34.9337 1.0514 -10.6140 -18.6695 1.6914 -8.1913 -23.2965 0.0000 0.0000 0.0000 19.5107 3.1532 -12.8392 -5.8651 -14.2964 44.4380 -2.1400 7.8962 -26.2970 -1.8213 -8.4834 24.1924 0.5597 -0.7077 3.5553 -2.8189 -1.0295 -2.3059 -3.1574 -0.5752 -4.4407 14.0205 4.0737 6.0876 -18.9196 4.5564 -15.1029 -8.6963 2.7406 -4.5787 -0.0000 -0.0000 0.0000 4.9721 -18.6407 -20.9945 66.9281 -57.8899 -40.1607 -0.0000 0.0000 -21.0572 47.2911 16.0912 16.7134 -7.1250 0.0000 -0.0000 20.3707 51.8607 3.5640 -0.0000 -0.0000 0.0000 77.9118 24.9182 49.7529 -92.2092 59.9816 -61.9131 0.0000 -0.0000 -24.4725 -14.9220 9.8627 -2.6136 7.1250 -0.0000 -0.0000 8.5875 -19.8366 5.2223
3.1377 17.2093 -26.7739 4.4484 5.0256 2.5412 0.0000 0.0000 0.0000 -25.1125 -7.2627 -14.9843 3.5628 11.5547 34.1742 0.9785 -11.3772 -18.2243 1.7010 -8.2134 -23.3642 0.0000 0.0000 0.0000 18.3522 3.0570 -13.6825 -6.2855 -14.6994 46.1171 -2.1200 7.6915 -26.1782 -1.7819 -8.3962 23.9242 -0.0074 -0.8239 3.5660 -3.2039 -1.2280 -2.1831 -3.2235 -0.6613 -4.3282 13.5607 4.2140 5.9172 -18.6664 4.7183 -15.0281 -8.5192 2.8221 -4.5212 0.0000 -0.0000 0.0000 4.9176 -19.1678 -21.4083 67.6987 -58.0347 -40.8140 -0.0000 0.0000 -22.7862 47.8613 16.6130 17.5359 -7.1250 0.0000 -0.0000 21.1940 52.6873 4.1599 0.0000 -0.0000 0.0000 77.7433 24.9452 49.7267 -92.5056 59.9763 -62.1697 0.0000 -0.0000 -24.3364 -14.5016 9.7920 -2.5187 7.1250 -0.0000 -0.0000 8.8879 -19.9314 5.3903
